<?xml version="1.0" standalone="no"?>
<!DOCTYPE svg PUBLIC "-//W3C//DTD SVG 20010904//EN"
 "http://www.w3.org/TR/2001/REC-SVG-20010904/DTD/svg10.dtd">
<svg version="1.0" xmlns="http://www.w3.org/2000/svg"
 width="709.000000pt" height="154.000000pt" viewBox="0 0 709.000000 154.000000"
 preserveAspectRatio="xMidYMid meet">

<g transform="translate(0.000000,154.000000) scale(0.100000,-0.100000)"
fill="#000000" stroke="none">
<path d="M590 1099 c-114 -22 -246 -121 -302 -225 -132 -244 -25 -545 229
-650 32 -13 64 -24 71 -24 6 0 12 -4 12 -9 0 -14 -64 -61 -83 -61 -14 0 -17
-10 -17 -50 0 -50 0 -50 28 -44 55 13 90 36 145 94 52 56 59 60 102 60 43 0
49 -4 113 -68 56 -57 76 -71 118 -81 85 -20 135 -2 216 81 39 39 76 68 88 68
17 0 20 6 20 50 0 41 -3 50 -17 50 -38 -1 -101 -40 -156 -99 -53 -56 -61 -61
-101 -61 -39 0 -48 5 -95 52 -28 29 -51 55 -51 58 1 3 23 21 51 40 104 73 176
202 186 335 11 141 -36 263 -141 364 -116 110 -257 151 -416 120z m239 -111
c41 -15 73 -38 117 -83 79 -80 107 -148 107 -255 0 -108 -29 -178 -107 -256
-79 -79 -147 -107 -261 -107 -70 0 -90 4 -146 31 -231 110 -287 393 -116 579
105 114 254 147 406 91z"/>
<path d="M2866 989 c-72 -57 16 -157 92 -103 32 22 30 76 -4 103 -15 12 -34
21 -44 21 -10 0 -29 -9 -44 -21z"/>
<path d="M6205 985 c-30 -30 -31 -54 -4 -89 40 -50 129 -23 129 39 0 33 -42
75 -75 75 -14 0 -37 -11 -50 -25z"/>
<path d="M3672 653 l3 -318 58 -3 57 -3 0 148 c0 121 3 154 18 183 22 44 72
64 126 49 62 -17 71 -42 74 -222 l4 -158 56 3 57 3 3 139 c3 180 -8 239 -57
287 -64 65 -162 74 -236 23 -20 -13 -38 -24 -40 -24 -3 0 -5 47 -5 105 l0 105
-60 0 -60 0 2 -317z"/>
<path d="M6780 859 l0 -110 -32 24 c-70 52 -148 58 -226 18 -76 -39 -112 -110
-112 -221 0 -90 20 -141 75 -188 48 -43 74 -52 141 -52 61 0 85 9 127 48 l27
26 0 -37 0 -37 60 0 60 0 0 320 0 320 -60 0 -60 0 0 -111z m-39 -187 c98 -110
-10 -289 -137 -228 -90 43 -100 195 -16 249 43 28 118 18 153 -21z"/>
<path d="M1950 629 l0 -301 163 4 c151 3 165 5 206 28 54 30 83 75 83 132 1
56 -24 104 -68 130 l-35 21 30 18 c90 54 79 194 -19 246 -40 21 -56 23 -202
23 l-158 0 0 -301z m301 182 c25 -30 24 -76 -1 -101 -17 -17 -33 -20 -100 -20
l-80 0 0 76 0 76 81 -4 c70 -3 83 -6 100 -27z m3 -242 c20 -16 26 -29 26 -58
0 -59 -25 -75 -126 -80 l-84 -3 0 81 0 81 79 0 c64 0 83 -4 105 -21z"/>
<path d="M4260 870 l0 -60 -30 0 c-29 0 -30 -1 -30 -50 0 -49 1 -50 30 -50
l30 0 0 -137 c0 -119 3 -142 20 -170 29 -47 60 -63 139 -70 l71 -6 0 50 0 50
-46 6 c-26 2 -50 11 -55 18 -5 8 -9 69 -9 137 l0 122 55 0 55 0 0 50 0 50 -55
0 -55 0 0 60 0 60 -60 0 -60 0 0 -60z"/>
<path d="M2716 810 c-16 -5 -44 -24 -63 -42 l-33 -32 0 37 0 37 -60 0 -60 0 0
-240 0 -240 60 0 60 0 0 134 c0 73 5 147 11 165 13 37 53 61 104 61 l35 0 0
65 c0 69 -1 70 -54 55z"/>
<path d="M3206 805 c-55 -20 -113 -79 -132 -138 -30 -91 -9 -211 50 -275 69
-77 209 -84 289 -14 16 14 17 11 17 -45 0 -73 -22 -107 -80 -124 -33 -10 -47
-9 -85 5 -25 10 -50 26 -55 37 -9 15 -22 19 -70 19 -68 0 -71 -5 -37 -65 65
-116 269 -144 374 -52 69 61 73 78 73 385 l0 272 -60 0 -60 0 0 -31 0 -31 -30
26 c-53 44 -125 56 -194 31z m159 -107 c45 -20 68 -71 63 -139 -3 -48 -10 -65
-33 -89 -34 -35 -80 -46 -129 -30 -93 30 -114 178 -35 245 34 28 90 33 134 13z"/>
<path d="M4683 810 c-79 -18 -127 -79 -120 -150 7 -59 45 -93 139 -121 97 -29
128 -46 128 -69 0 -26 -37 -50 -78 -50 -25 0 -42 8 -62 30 -25 26 -35 30 -84
30 -60 0 -64 -5 -42 -48 34 -66 104 -102 196 -102 114 0 180 52 180 141 0 74
-30 102 -155 142 -85 27 -100 35 -103 55 -5 35 15 52 63 52 41 0 75 -21 75
-48 0 -8 21 -12 60 -12 66 0 72 8 45 59 -40 79 -138 116 -242 91z"/>
<path d="M5182 811 c-97 -25 -166 -120 -166 -231 -1 -110 42 -188 125 -231 66
-33 180 -21 218 24 7 10 17 17 22 17 5 0 9 -63 9 -140 l0 -140 60 0 60 0 0
350 0 350 -60 0 -60 0 0 -32 0 -31 -22 20 c-13 11 -32 25 -43 31 -30 15 -105
22 -143 13z m146 -121 c59 -36 77 -112 43 -186 -19 -42 -67 -74 -111 -74 -30
0 -75 25 -99 56 -26 33 -29 120 -6 164 30 58 112 77 173 40z"/>
<path d="M2850 570 l0 -240 60 0 60 0 0 240 0 240 -60 0 -60 0 0 -240z"/>
<path d="M5622 638 c3 -163 5 -176 28 -218 57 -101 202 -122 293 -42 16 14 17
13 17 -17 l0 -32 58 3 57 3 3 238 2 237 -60 0 -60 0 0 -132 c0 -73 -5 -150
-10 -170 -22 -79 -111 -104 -172 -49 l-33 29 -3 161 -4 161 -60 0 -60 0 4
-172z"/>
<path d="M6200 570 l0 -241 58 3 57 3 3 238 2 237 -60 0 -60 0 0 -240z"/>
</g>
</svg>
